<svg width="1em" height="1em" fill="currentColor" viewBox="0 0 512 512">
<g id="XMLID_1_"><g id="XMLID_655_">
<path id="XMLID_656_" d="m64 84c2.63 0 5.21-1.07 7.07-2.931 1.86-1.859 2.93-4.439 2.93-7.069s-1.07-5.21-2.93-7.07c-1.86-1.861-4.44-2.93-7.07-2.93s-5.21 1.069-7.07 2.93c-1.86 1.86-2.93 4.44-2.93 7.07s1.07 5.21 2.93 7.069c1.86 1.861 4.44 2.931 7.07 2.931z"/><path id="XMLID_657_" d="m122.75 84c2.63 0 5.21-1.07 7.07-2.931 1.86-1.859 2.93-4.439 2.93-7.069s-1.07-5.21-2.93-7.07-4.44-2.93-7.07-2.93-5.21 1.069-7.07 2.93c-1.86 1.86-2.93 4.44-2.93 7.07s1.07 5.21 2.93 7.069c1.86 1.861 4.44 2.931 7.07 2.931z"/><path id="XMLID_658_" d="m181.5 84c2.63 0 5.21-1.07 7.07-2.931 1.86-1.859 2.93-4.439 2.93-7.069s-1.07-5.21-2.93-7.07-4.44-2.93-7.07-2.93-5.21 1.069-7.07 2.93c-1.86 1.86-2.93 4.44-2.93 7.07s1.07 5.21 2.93 7.069c1.86 1.861 4.44 2.931 7.07 2.931z"/><path id="XMLID_659_" d="m240.25 84c2.63 0 5.21-1.07 7.07-2.931 1.86-1.859 2.93-4.439 2.93-7.069s-1.07-5.21-2.93-7.07-4.44-2.93-7.07-2.93-5.21 1.069-7.07 2.93c-1.86 1.86-2.93 4.44-2.93 7.07s1.07 5.21 2.93 7.069c1.86 1.861 4.44 2.931 7.07 2.931z"/><path id="XMLID_660_" d="m298.998 84h41.002c5.523 0 10-4.478 10-10s-4.477-10-10-10h-41.002c-5.523 0-10 4.477-10 10s4.477 10 10 10z"/><path id="XMLID_663_" d="m509.693 277.611c-1.9-2.288-4.72-3.611-7.693-3.611h-.926c-18.962-39.954-53.877-64.5-92.484-64.5-1.534 0-3.063.053-4.59.131v-139.631c0-27.57-22.43-50-50-50h-304c-27.57 0-50 22.43-50 50v372c0 27.57 22.43 50 50 50h415c4.814 0 8.945-3.431 9.83-8.163l37-198c.546-2.923-.237-5.938-2.137-8.226zm-31.187-3.611h-52.511c-10.426-17.602-25.788-31.167-43.82-39.318 8.493-3.412 17.402-5.182 26.416-5.182 27.955 0 53.733 16.713 69.915 44.5zm-222.506 0c-2.974 0-5.794 1.323-7.693 3.611s-2.683 5.303-2.136 8.226l5.306 28.392c-15.024 4.125-31.112-.006-42.405-11.3-12.04-12.039-28.046-18.669-45.072-18.669-8.591 0-16.92 1.693-24.613 4.912 8.744-26.214 33.498-45.172 62.613-45.172 22.449 0 43.187 11.374 55.32 30zm-92 30.26c11.684 0 22.667 4.55 30.929 12.812 12.275 12.275 28.436 18.745 44.945 18.745 5.096 0 10.225-.635 15.284-1.888l2.234 11.957c-12.123 18.658-33.025 30.114-55.392 30.114-34.957 0-63.637-27.322-65.847-61.73 7.821-6.481 17.562-10.01 27.847-10.01zm177.75-58.26c23.519 0 45.239 10.415 59.861 28h-119.722c14.622-17.585 36.342-28 59.861-28zm-291.75-206h304c16.542 0 30 13.458 30 30v38h-364v-38c0-16.542 13.458-30 30-30zm-30 402v-314h364v84.95c-10.182 2.889-19.973 7.563-29.058 13.935-4.331-.581-8.735-.886-13.192-.886-12.337 0-24.275 2.292-35.339 6.555-24.507-33.031-63.021-52.554-104.411-52.554-17.928 0-35.295 3.585-51.62 10.654-5.068 2.195-7.397 8.083-5.202 13.15 2.194 5.068 8.083 7.399 13.15 5.203 13.801-5.977 28.495-9.007 43.672-9.007 33.89 0 65.504 15.473 86.307 41.804-6.698 4.362-12.869 9.548-18.356 15.479-16.143-20.805-41.108-33.283-67.951-33.283-47.42 0-86 38.579-86 86s38.58 86 86 86c22.721 0 44.279-9.073 60.162-24.586l5.076 27.165c-18.971 14.03-41.423 21.421-65.238 21.421-60.654 0-110-49.346-110-110 0-15.177 3.031-29.87 9.007-43.672 2.195-5.067-.134-10.955-5.202-13.15-5.069-2.193-10.956.135-13.15 5.203-7.07 16.324-10.655 33.692-10.655 51.619 0 71.683 58.318 130 130 130 24.532 0 48.621-7.022 69.245-19.983l9.713 51.983h-230.958c-16.542 0-30-13.458-30-30zm436.696 30h-155.392l-33.262-178h221.916z"/><path id="XMLID_683_" d="m117.15 235.149c2.63 0 5.21-1.069 7.07-2.93 1.86-1.86 2.93-4.439 2.93-7.07 0-2.63-1.07-5.21-2.93-7.069-1.86-1.86-4.44-2.931-7.07-2.931-2.64 0-5.21 1.07-7.07 2.931-1.86 1.859-2.93 4.439-2.93 7.069 0 2.631 1.07 5.21 2.93 7.07 1.86 1.861 4.44 2.93 7.07 2.93z"/>
</g>
</g>
</svg>